<svg width="48" height="48" viewBox="0 0 48 48" fill="none" xmlns="http://www.w3.org/2000/svg">
<g filter="url(#filter0_d_81_549)">
<path d="M28.953 4.05867C28.1943 4.18614 27.3749 4.77495 27.041 5.43659C26.956 5.60655 26.5615 6.70524 26.1609 7.88891C25.7603 9.06652 25.1472 10.8936 24.7891 11.9438C24.431 12.9939 23.7997 14.8635 23.387 16.1018C22.9682 17.334 22.428 18.9426 22.1791 19.6649C21.9303 20.3933 21.7482 20.9882 21.7724 20.9882C21.9181 20.9882 24.601 20.0959 24.8438 19.9684C25.2322 19.756 25.8149 19.2218 26.0031 18.894C26.1366 18.6694 26.8104 16.6906 30.0699 6.9177C30.5858 5.36982 31.0107 4.07688 31.0107 4.04653C31.0107 3.97976 29.3961 3.98583 28.953 4.05867Z" fill="#545F71"/>
<path d="M13.5781 8.76902L12.1942 8.78723V10.7054C12.1942 12.8724 12.17 13.0485 11.7633 13.8254C10.7921 15.7011 8.2003 17.164 5.15326 17.5586C4.73445 17.6132 4.30349 17.6678 4.19423 17.686L4 17.7164L4.01214 20.0655L4.03035 22.4146L4.21244 22.4268C6.44613 22.6089 8.20637 23.1673 9.74203 24.1932C10.8528 24.9398 11.6965 25.9232 12.0121 26.8458C12.1457 27.2404 12.1578 27.3982 12.2003 29.0614C12.2246 30.0448 12.2489 30.931 12.2489 31.0342L12.2549 31.2163L13.9059 31.2042L15.563 31.192V28.8975C15.563 26.6637 15.5569 26.5909 15.4234 26.1478C15.0895 25.0794 14.2883 23.9322 13.2322 23.0095C12.0486 21.9715 10.2155 20.9457 8.49165 20.3569L7.58118 20.0412L8.2003 19.8409C11.5873 18.7665 14.2883 16.7209 15.2291 14.5235C15.5569 13.7587 15.5933 13.4187 15.5933 10.9846V8.72653L15.2777 8.73867C15.1017 8.75081 14.3369 8.76295 13.5781 8.76902Z" fill="#545F71"/>
<path d="M34.0213 8.77511L32.3339 8.78725L32.3642 11.0514C32.3885 13.1031 32.4006 13.352 32.522 13.7951C32.8012 14.8574 33.4264 15.8225 34.4765 16.8302C35.8543 18.1474 37.5478 19.1125 39.739 19.8349L40.431 20.0595L39.8968 20.2233C37.9666 20.8304 36.1275 21.8076 34.8832 22.8881C33.9788 23.6833 33.3839 24.4299 32.9287 25.3344C32.431 26.336 32.346 26.9369 32.346 29.4074V31.186H34.0638H35.7876L35.7815 29.4378C35.7754 28.2723 35.7997 27.5925 35.8483 27.3861C36.0547 26.5059 36.5281 25.7047 37.2686 24.9884C38.5979 23.6833 40.8012 22.7424 43.0774 22.5057C43.4355 22.4632 43.7876 22.4207 43.8665 22.4086L44 22.3843V20.0534V17.7164L43.654 17.68C42.1366 17.5039 41.0622 17.2611 40.0425 16.8605C37.8392 15.9864 36.3339 14.5842 35.8908 12.9878C35.8119 12.7207 35.7815 12.1987 35.7512 10.6993L35.7147 8.7569L34.0213 8.77511Z" fill="#545F71"/>
<path d="M23.3445 23.1188C22.6768 23.307 21.9849 23.5437 21.7967 23.6348C21.3597 23.8472 20.7041 24.4967 20.516 24.9034C20.4371 25.0673 19.8179 26.8459 19.1442 28.849C18.4644 30.8521 17.7421 32.9828 17.5418 33.5776C17.3354 34.1725 17.1715 34.6763 17.1715 34.6824C17.1715 34.6945 17.6146 34.7067 18.1609 34.7067C19.2292 34.7067 19.5569 34.646 20.1275 34.3667C20.5281 34.1725 21.0501 33.6687 21.2261 33.3045C21.299 33.1588 22.1305 30.7247 23.0835 27.8899C24.692 23.1127 24.8073 22.7485 24.6799 22.7546C24.607 22.7607 24.0061 22.9246 23.3445 23.1188Z" fill="#545F71"/>
<path d="M4.60693 41.2319V43.9938H5.85124C7.55686 43.9938 8.16384 43.8664 8.86187 43.3565C10.1062 42.4399 10.2276 40.37 9.10466 39.3016C8.38235 38.6096 7.84214 38.47 5.9605 38.47H4.60693V41.2319ZM7.65397 39.593C8.0303 39.7265 8.50982 40.1575 8.64335 40.4853C8.71012 40.6492 8.74654 40.9163 8.74654 41.2016C8.75261 41.7843 8.58265 42.2032 8.2124 42.5309C7.82393 42.8709 7.47188 42.9619 6.51285 42.9619H5.6995V41.1955V39.423L6.53713 39.4595C7.07127 39.4837 7.47188 39.5323 7.65397 39.593Z" fill="#545F71"/>
<path d="M11.3445 41.2319V43.9938H13.4386H15.5326V43.5082V43.0226H13.9848H12.437V42.3246V41.6265H13.7724H15.1078V41.1409V40.6553H13.7724H12.437V40.0483V39.4412H13.9545H15.4719V38.9556V38.47H13.4082H11.3445V41.2319Z" fill="#545F71"/>
<path d="M16.5038 38.4883C16.5038 38.5005 16.8194 39.2289 17.2079 40.1091C17.5903 40.9953 18.1305 42.2336 18.3976 42.8588L18.8892 44L19.3687 43.9818L19.8482 43.9636L20.9469 41.4141C21.5478 40.0119 22.0759 38.7736 22.1244 38.6644L22.2094 38.4701H21.6146C21.0501 38.4701 21.0136 38.4762 20.9529 38.6037C20.9226 38.6826 20.5584 39.587 20.1457 40.6129C19.739 41.6448 19.3809 42.4643 19.3566 42.4339C19.3262 42.4096 19.0288 41.6994 18.6889 40.8678C18.349 40.0301 17.9848 39.15 17.8877 38.9072L17.7056 38.4701H17.1047C16.7769 38.4701 16.5038 38.4762 16.5038 38.4883Z" fill="#545F71"/>
<path d="M23.3627 41.2319V43.9938H24.6555C26.088 43.9938 26.5372 43.9271 27.1563 43.6357C27.8118 43.3322 28.2914 42.8041 28.5341 42.1242C28.7102 41.6326 28.7041 40.7524 28.5281 40.285C28.17 39.3441 27.3991 38.731 26.3126 38.5247C26.1487 38.4943 25.4203 38.47 24.692 38.47H23.3627V41.2319ZM26.4704 39.593C26.8225 39.7144 27.217 40.0483 27.3809 40.376C27.563 40.7281 27.5994 41.4444 27.4598 41.8693C27.3202 42.2942 26.9499 42.6645 26.4947 42.8344C26.2033 42.9437 26.0212 42.9619 25.305 42.9619H24.4552V41.1894V39.423L25.3232 39.4595C25.8513 39.4837 26.3005 39.5384 26.4704 39.593Z" fill="#545F71"/>
<path d="M30.1851 38.5672C30.2033 38.6218 30.2215 39.8601 30.2215 41.3291V43.9938H30.7678H31.3141V41.2319V38.47H30.7314C30.2215 38.47 30.1548 38.4822 30.1851 38.5672Z" fill="#545F71"/>
<path d="M32.5038 38.6036C32.528 38.6825 32.7344 39.1681 32.9651 39.6841C33.2018 40.2 33.6874 41.3048 34.0455 42.1425C34.4036 42.9741 34.7314 43.7328 34.7739 43.8239C34.8528 43.9878 34.871 43.9938 35.3323 43.9938C35.5933 43.9938 35.8057 43.9696 35.8057 43.9331C35.8057 43.8724 36.5402 42.1485 37.5113 39.9208C37.8391 39.162 38.1123 38.5247 38.1123 38.5065C38.1123 38.4822 37.8452 38.4761 37.5235 38.4822L36.9347 38.5004L36.7162 39.0467C36.5948 39.3441 36.2367 40.2425 35.9211 41.0316C35.6054 41.8268 35.3384 42.4763 35.3201 42.4763C35.3019 42.4763 34.9256 41.5719 34.4764 40.4732L33.6631 38.47H33.0622C32.4673 38.47 32.4613 38.47 32.5038 38.6036Z" fill="#545F71"/>
<path d="M39.3263 41.2319V43.9938H41.39H43.4538V43.5082V43.0226H41.9363H40.4189V42.3246V41.6265H41.7542H43.0896V41.1409V40.6553H41.7542H40.4189V40.0483V39.4412H41.9363H43.4538V38.9556V38.47H41.39H39.3263V41.2319Z" fill="#545F71"/>
</g>
<defs>
<filter id="filter0_d_81_549" x="0" y="0" width="48" height="48" filterUnits="userSpaceOnUse" color-interpolation-filters="sRGB">
<feFlood flood-opacity="0" result="BackgroundImageFix"/>
<feColorMatrix in="SourceAlpha" type="matrix" values="0 0 0 0 0 0 0 0 0 0 0 0 0 0 0 0 0 0 127 0" result="hardAlpha"/>
<feOffset/>
<feGaussianBlur stdDeviation="2"/>
<feComposite in2="hardAlpha" operator="out"/>
<feColorMatrix type="matrix" values="0 0 0 0 0 0 0 0 0 0 0 0 0 0 0 0 0 0 0.25 0"/>
<feBlend mode="normal" in2="BackgroundImageFix" result="effect1_dropShadow_81_549"/>
<feBlend mode="normal" in="SourceGraphic" in2="effect1_dropShadow_81_549" result="shape"/>
</filter>
</defs>
</svg>
